<svg width="59" height="19" fill="none" xmlns="http://www.w3.org/2000/svg"><path d="M2.384 18.192c-1.024 0-1.536-.528-1.536-1.584V2.64c0-1.04.52-1.56 1.56-1.56h5.784c1.856 0 3.288.464 4.296 1.392C13.496 3.4 14 4.696 14 6.36c0 1.664-.504 2.968-1.512 3.912-1.008.928-2.44 1.392-4.296 1.392H3.92v4.944c0 1.056-.512 1.584-1.536 1.584zM3.92 9.24h3.792c2.208 0 3.312-.96 3.312-2.88 0-1.904-1.104-2.856-3.312-2.856H3.92V9.24zm16.304 9c-2.672 0-4.008-1.496-4.008-4.488V2.4c0-1.008.496-1.512 1.488-1.512 1.008 0 1.512.504 1.512 1.512v11.208c0 1.44.6 2.16 1.8 2.16h.36l.336-.048c.224-.032.376.032.456.192.08.144.12.448.12.912 0 .4-.08.712-.24.936-.16.224-.424.36-.792.408a7.29 7.29 0 01-1.032.072zm7.52 0c-.848 0-1.608-.16-2.28-.48a4.133 4.133 0 01-1.56-1.344 3.376 3.376 0 01-.552-1.896c0-.864.224-1.544.672-2.04.448-.512 1.176-.88 2.184-1.104 1.008-.224 2.36-.336 4.056-.336h.84v-.504c0-.8-.176-1.376-.528-1.728-.352-.352-.944-.528-1.776-.528-.464 0-.968.056-1.512.168a8.057 8.057 0 00-1.68.576c-.384.176-.704.2-.96.072a1.123 1.123 0 01-.528-.648 1.486 1.486 0 01.048-.912c.128-.304.376-.528.744-.672.736-.304 1.44-.52 2.112-.648a10.32 10.32 0 011.872-.192c1.712 0 2.984.4 3.816 1.2.832.784 1.248 2.008 1.248 3.672v5.76c0 1.024-.464 1.536-1.392 1.536-.944 0-1.416-.512-1.416-1.536v-.528a3.344 3.344 0 01-1.296 1.56c-.592.368-1.296.552-2.112.552zm.624-2.064c.784 0 1.432-.272 1.944-.816.528-.544.792-1.232.792-2.064v-.528h-.816c-1.504 0-2.552.12-3.144.36-.576.224-.864.64-.864 1.248 0 .528.184.96.552 1.296.368.336.88.504 1.536.504zm10.125 2.016c-.992 0-1.488-.512-1.488-1.536V7.584c0-1.008.488-1.512 1.464-1.512s1.464.504 1.464 1.512v.504a4.01 4.01 0 011.608-1.536c.688-.352 1.456-.528 2.304-.528 2.768 0 4.152 1.608 4.152 4.824v5.808c0 1.024-.496 1.536-1.488 1.536-1.008 0-1.512-.512-1.512-1.536v-5.664c0-.912-.176-1.576-.528-1.992-.336-.416-.864-.624-1.584-.624-.88 0-1.584.28-2.112.84-.512.544-.768 1.272-.768 2.184v5.256c0 1.024-.504 1.536-1.512 1.536zm17.927.048c-3.104 0-4.656-1.536-4.656-4.608V8.52h-1.248c-.8 0-1.2-.376-1.2-1.128 0-.752.4-1.128 1.2-1.128h1.248V4.08c0-1.008.504-1.512 1.512-1.512.992 0 1.488.504 1.488 1.512v2.184h2.544c.8 0 1.2.376 1.2 1.128 0 .752-.4 1.128-1.2 1.128h-2.544v4.944c0 .768.168 1.344.504 1.728.336.384.88.576 1.632.576.272 0 .512-.024.72-.072.208-.048.392-.08.552-.096a.55.55 0 01.48.192c.128.128.192.4.192.816 0 .32-.056.608-.168.864-.096.24-.28.408-.552.504-.208.064-.48.12-.816.168a4.817 4.817 0 01-.888.096z" fill="#1A1A1A"/></svg>